<svg viewBox="0 0 12 12" width="60px" height="60px" xmlns="http://www.w3.org/2000/svg"><path fill-rule="evenodd" d="M 2,0 5,0 5,2 7,2 7,0 10,0 10,1 11,1 11,4 8,4 8,5 10,5 10,6 11,6 11,7 12,7 12,11 11,11 11,12 1,12 1,11 0,11 0,7 1,7 1,6 2,6 2,5 4,5 4,4 1,4 1,1 2,1z" fill="#BD6BBD"/><path fill-rule="evenodd" d="M 3,1 4,1 4,2 3,2z" fill="#ffffff"/><path fill-rule="evenodd" d="M 8,1 9,1 9,2 8,2z" fill="#ffffff"/><path fill-rule="evenodd" d="M 2,2 3,2 3,3 2,3z" fill="#ffffff"/><path fill-rule="evenodd" d="M 9,2 10,2 10,3 9,3z" fill="#ffffff"/><path fill-rule="evenodd" d="M 5,3 7,3 7,4 5,4z" fill="#ffffff"/><path fill-rule="evenodd" d="M 5,5 7,5 7,7 5,7z" fill="#ffffff"/><path fill-rule="evenodd" d="M 3,6 4,6 4,8 8,8 8,6 9,6 9,7 10,7 10,8 9,8 9,9 3,9 3,8 2,8 2,7 3,7z" fill="#ffffff"/><path fill-rule="evenodd" d="M 1,8 2,8 2,9 3,9 3,11 2,11 2,10 1,10z" fill="#ffffff"/><path fill-rule="evenodd" d="M 10,8 11,8 11,10 10,10 10,11 9,11 9,9 10,9z" fill="#ffffff"/><path fill-rule="evenodd" d="M 4,10 8,10 8,11 4,11z" fill="#ffffff"/></svg>